<?xml version="1.0" encoding="UTF-8" standalone="no"?>
<!-- Created with Inkscape (http://www.inkscape.org/) -->

<svg
   xmlns:dc="http://purl.org/dc/elements/1.1/"
   xmlns:cc="http://creativecommons.org/ns#"
   xmlns:rdf="http://www.w3.org/1999/02/22-rdf-syntax-ns#"
   xmlns:svg="http://www.w3.org/2000/svg"
   xmlns="http://www.w3.org/2000/svg"
   xmlns:xlink="http://www.w3.org/1999/xlink"
   xmlns:sodipodi="http://sodipodi.sourceforge.net/DTD/sodipodi-0.dtd"
   xmlns:inkscape="http://www.inkscape.org/namespaces/inkscape"
   width="86"
   height="86"
   id="svg2"
   version="1.1"
   inkscape:version="0.48.4 r9939"
   sodipodi:docname="double-shape2.svg"
   inkscape:export-filename="C:\Users\Stephan\Desktop\double-shape.png"
   inkscape:export-xdpi="90"
   inkscape:export-ydpi="90">
  <defs
     id="defs4">
    <linearGradient
       id="linearGradient3789-6">
      <stop
         style="stop-color:#e50c98;stop-opacity:1;"
         offset="0"
         id="stop3791-0" />
      <stop
         style="stop-color:#960862;stop-opacity:1;"
         offset="1"
         id="stop3793-4" />
    </linearGradient>
    <linearGradient
       inkscape:collect="always"
       xlink:href="#linearGradient3789-6"
       id="linearGradient3922"
       gradientUnits="userSpaceOnUse"
       spreadMethod="reflect"
       x1="45"
       y1="10"
       x2="45"
       y2="80" />
    <linearGradient
       id="linearGradient3789-6-7">
      <stop
         style="stop-color:#0a75c2;stop-opacity:1;"
         offset="0"
         id="stop3791-0-4" />
      <stop
         style="stop-color:#064572;stop-opacity:1;"
         offset="1"
         id="stop3793-4-0" />
    </linearGradient>
    <linearGradient
       y2="80"
       x2="45"
       y1="10"
       x1="45"
       spreadMethod="reflect"
       gradientUnits="userSpaceOnUse"
       id="linearGradient3016"
       xlink:href="#linearGradient3789-6-7"
       inkscape:collect="always"
       gradientTransform="matrix(-1,0,0,-1,90,90)" />
    <linearGradient
       inkscape:collect="always"
       xlink:href="#linearGradient3789-6"
       id="linearGradient3036"
       gradientUnits="userSpaceOnUse"
       spreadMethod="reflect"
       x1="45"
       y1="10"
       x2="45"
       y2="80"
       gradientTransform="matrix(-0.95555556,0,0,0.95555556,86,4)" />
    <linearGradient
       inkscape:collect="always"
       xlink:href="#linearGradient5048"
       id="linearGradient3998"
       gradientUnits="userSpaceOnUse"
       x1="16.090515"
       y1="-7.0982523"
       x2="16.090515"
       y2="36.838562" />
    <linearGradient
       id="linearGradient5048">
      <stop
         id="stop5050"
         style="stop-color:#c3c3c3;stop-opacity:1"
         offset="0" />
      <stop
         id="stop5052"
         style="stop-color:#ffffff;stop-opacity:1"
         offset="1" />
    </linearGradient>
    <linearGradient
       inkscape:collect="always"
       xlink:href="#linearGradient5239"
       id="linearGradient4013"
       gradientUnits="userSpaceOnUse"
       gradientTransform="matrix(0.9848564,0,0,0.9848564,-0.92040974,1.4578175)"
       x1="56.516762"
       y1="37.6446"
       x2="70.611412"
       y2="21.701733" />
    <linearGradient
       id="linearGradient5239">
      <stop
         id="stop5241"
         style="stop-color:#ffffff;stop-opacity:1"
         offset="0" />
      <stop
         id="stop5243"
         style="stop-color:#c0c0c0;stop-opacity:1"
         offset="1" />
    </linearGradient>
    <linearGradient
       inkscape:collect="always"
       xlink:href="#linearGradient5239"
       id="linearGradient4010"
       gradientUnits="userSpaceOnUse"
       gradientTransform="matrix(0.9848564,0,0,0.9848564,-0.92040974,1.4578175)"
       x1="56.516762"
       y1="37.6446"
       x2="70.611412"
       y2="21.701733" />
    <linearGradient
       id="linearGradient4053">
      <stop
         id="stop4055"
         style="stop-color:#ffffff;stop-opacity:1"
         offset="0" />
      <stop
         id="stop4057"
         style="stop-color:#c0c0c0;stop-opacity:1"
         offset="1" />
    </linearGradient>
    <linearGradient
       inkscape:collect="always"
       xlink:href="#linearGradient5239"
       id="linearGradient4007"
       gradientUnits="userSpaceOnUse"
       gradientTransform="matrix(0.9848564,0,0,0.9848564,-0.92040974,1.4578175)"
       x1="56.516762"
       y1="37.6446"
       x2="70.611412"
       y2="21.701733" />
    <linearGradient
       id="linearGradient4060">
      <stop
         id="stop4062"
         style="stop-color:#ffffff;stop-opacity:1"
         offset="0" />
      <stop
         id="stop4064"
         style="stop-color:#c0c0c0;stop-opacity:1"
         offset="1" />
    </linearGradient>
    <linearGradient
       y2="21.701733"
       x2="70.611412"
       y1="37.6446"
       x1="56.516762"
       gradientTransform="matrix(0.9848564,0,0,0.9848564,-0.92040974,1.4578175)"
       gradientUnits="userSpaceOnUse"
       id="linearGradient4079"
       xlink:href="#linearGradient5239"
       inkscape:collect="always" />
  </defs>
  <sodipodi:namedview
     id="base"
     pagecolor="#ffffff"
     bordercolor="#666666"
     borderopacity="1.0"
     inkscape:pageopacity="0.0"
     inkscape:pageshadow="2"
     inkscape:zoom="5.6568542"
     inkscape:cx="29.25431"
     inkscape:cy="38.32532"
     inkscape:document-units="px"
     inkscape:current-layer="layer2"
     showgrid="true"
     inkscape:window-width="1366"
     inkscape:window-height="721"
     inkscape:window-x="-2"
     inkscape:window-y="-3"
     inkscape:window-maximized="1"
     inkscape:snap-bbox="true"
     inkscape:snap-global="true">
    <inkscape:grid
       type="xygrid"
       id="grid2985"
       empspacing="5"
       visible="true"
       enabled="true"
       snapvisiblegridlinesonly="true" />
  </sodipodi:namedview>
  <metadata
     id="metadata7">
    <rdf:RDF>
      <cc:Work
         rdf:about="">
        <dc:format>image/svg+xml</dc:format>
        <dc:type
           rdf:resource="http://purl.org/dc/dcmitype/StillImage" />
        <dc:title></dc:title>
      </cc:Work>
    </rdf:RDF>
  </metadata>
  <g
     inkscape:groupmode="layer"
     id="layer2"
     inkscape:label="Ebene"
     style="display:inline"
     transform="translate(0,-4)">
    <path
       style="fill:url(#linearGradient3036);fill-opacity:1;stroke:none;display:inline"
       d="m 43,4 c 23.748244,0 43,19.251756 43,43 l 0,40.790278 C 86,89.01865 85.01865,90 83.790278,90 L 43,90 C 42.257868,90 41.523178,89.97743 40.790278,89.94028 18.070374,88.788603 0,70.006112 0,47 L 0,6.2097222 C 0,4.9813498 0.98134982,4 2.2097222,4 L 43,4 z"
       id="rect3059"
       inkscape:connector-curvature="0" />
    <g
       transform="matrix(1.0000034,0,0,1,-5.0001621,-0.99999941)"
       id="g4020">
      <path
         d="m 57.815396,35.029446 -7.430322,1.963806 -11.579184,3.060337 c -0.838146,0.22214 -1.523471,1.1107 -1.523471,1.978779 l 0,22.778008 c -1.772393,-0.475789 -4.044206,-0.247348 -6.221493,0.803485 -14.102008,8.768958 9.000872,14.465262 9.370839,2.831102 l 0,-19.639691 15.754604,-4.167093 0,17.022852 c -1.772392,-0.474215 -4.042631,-0.248924 -6.221492,0.803484 -3.705484,1.791299 -5.687413,5.239981 -4.425469,7.702427 1.258793,2.462443 5.284094,3.009129 8.991153,1.214679 2.953988,-1.427367 4.813032,-3.902415 4.806729,-6.095456 l 0,-29.084577 c 0.0016,-0.866503 -0.685325,-1.394282 -1.521894,-1.172142 z"
         id="path3158-7"
         style="fill:#575757;fill-opacity:1"
         inkscape:connector-curvature="0" />
      <path
         inkscape:connector-curvature="0"
         style="fill:none;stroke:#686868;stroke-width:1.66619432;stroke-linecap:butt;stroke-linejoin:miter;stroke-miterlimit:4;stroke-opacity:1;stroke-dasharray:none;marker-start:none"
         id="path3187-3"
         d="m 56.496121,25.269483 c 3.389509,0.558426 5.597132,1.96256 7.022499,3.599338 2.904876,3.335725 2.560754,7.637699 2.350312,7.716615 l 0.171454,-0.91442" />
      <path
         inkscape:connector-curvature="0"
         style="fill:none;stroke:#686868;stroke-width:1.89586973;stroke-linecap:butt;stroke-linejoin:miter;stroke-miterlimit:4;stroke-opacity:1;stroke-dasharray:none;marker-start:none"
         id="path3187-1-6"
         d="m 57.746711,21.947935 c 3.856734,0.635402 5.342675,1.78656 7.233815,3.149619 2.043067,1.472562 4.427131,5.852904 4.376853,10.861218" />
      <path
         inkscape:connector-curvature="0"
         style="fill:none;stroke:#686868;stroke-width:1.42196059;stroke-linecap:butt;stroke-linejoin:miter;stroke-miterlimit:4;stroke-opacity:1;stroke-dasharray:none;marker-start:none"
         id="path3187-7-2"
         d="m 55.24413,28.596456 c 2.892669,0.47657 4.776693,1.674886 5.99313,3.071742 2.479071,2.846768 2.185392,6.51815 2.005797,6.585498 l 0.146322,-0.780383" />
      <g
         transform="matrix(0.88945422,0,0,0.88945422,29.142702,40.933438)"
         id="g3166">
        <g
           id="DO_NOT_EDIT_-_BOUNDING_BOX">
          <rect
             width="30"
             height="30"
             x="0"
             y="0"
             id="BOUNDING_BOX"
             style="fill:none" />
        </g>
        <g
           id="PLACE_YOUR_GRAPHIC_HERE">
          <path
             d="m 31.324503,-7.5153618 -8.3538,2.2078791 -13.0183021,3.4406899 C 9.0100871,-1.6170442 8.2395861,-0.61804991 8.2395861,0.35791796 l 0,25.60897204 C 6.2469113,25.431967 3.6927449,25.688801 1.2448546,26.870236 -14.609821,36.729043 11.3644,43.133312 11.780348,30.053201 l 0,-22.0806082 17.712665,-4.685 0,19.1385352 c -1.992675,-0.533151 -4.54507,-0.27986 -6.994731,0.903346 -4.166019,2.01393 -6.394272,5.891232 -4.975488,8.659722 1.415242,2.768489 5.940828,3.383119 10.108618,1.365646 3.321125,-1.604767 5.411219,-4.387427 5.404134,-6.85303 l 0,-32.6993515 c 0.0018,-0.9741966 -0.770501,-1.5675709 -1.711043,-1.3178223 z"
             id="path3158"
             style="fill:url(#linearGradient3998);fill-opacity:1"
             inkscape:connector-curvature="0" />
        </g>
      </g>
      <path
         inkscape:connector-curvature="0"
         style="fill:none;stroke:url(#linearGradient4013);stroke-width:1.66619432;stroke-linecap:butt;stroke-linejoin:miter;stroke-miterlimit:4;stroke-opacity:1;stroke-dasharray:none;marker-start:none"
         id="path3187"
         d="m 55.757585,25.30666 c 3.389508,0.558425 5.597132,1.96256 7.022498,3.599338 2.904876,3.335724 2.560754,7.637698 2.350312,7.716615 l 0.171454,-0.914421" />
      <path
         inkscape:connector-curvature="0"
         style="fill:none;stroke:url(#linearGradient4010);stroke-width:1.89586973;stroke-linecap:butt;stroke-linejoin:miter;stroke-miterlimit:4;stroke-opacity:1;stroke-dasharray:none;marker-start:none"
         id="path3187-1"
         d="m 57.008174,21.985111 c 3.856734,0.635402 5.342676,1.786561 7.233816,3.14962 2.043066,1.472562 4.42713,5.852904 4.376852,10.861217" />
      <path
         inkscape:connector-curvature="0"
         style="fill:none;stroke:url(#linearGradient4079);stroke-width:1.42196059;stroke-linecap:butt;stroke-linejoin:miter;stroke-miterlimit:4;stroke-opacity:1;stroke-dasharray:none;marker-start:none"
         id="path3187-7"
         d="m 54.505593,28.633633 c 2.892669,0.47657 4.776693,1.674885 5.99313,3.071741 2.479071,2.846768 2.185392,6.51815 2.005797,6.585499 l 0.146322,-0.780384" />
    </g>
  </g>
</svg>
