<?xml version="1.0" encoding="UTF-8" standalone="no"?>
<svg
   xmlns:dc="http://purl.org/dc/elements/1.1/"
   xmlns:cc="http://creativecommons.org/ns#"
   xmlns:rdf="http://www.w3.org/1999/02/22-rdf-syntax-ns#"
   xmlns:svg="http://www.w3.org/2000/svg"
   xmlns="http://www.w3.org/2000/svg"
   xml:space="preserve"
   style="enable-background:new 0 0 80 81;"
   viewBox="0 0 80 81"
   height="81px"
   width="80px"
   y="0px"
   x="0px"
   id="icon-l-search-layer"
   version="1.1"><metadata
     id="metadata17"><rdf:RDF><cc:Work
         rdf:about=""><dc:format>image/svg+xml</dc:format><dc:type
           rdf:resource="http://purl.org/dc/dcmitype/StillImage" /><dc:title></dc:title></cc:Work></rdf:RDF></metadata><defs
     id="defs15" /><g
     id="icon-l-search_1_"><linearGradient
       y2="253.9996"
       x2="39.9995"
       y1="14.9482"
       x1="39.9995"
       gradientUnits="userSpaceOnUse"
       id="SVGID_1_"><stop
         id="stop5"
         style="stop-color:#FFFFFF"
         offset="0" /><stop
         id="stop7"
         style="stop-color:#B2B2C9"
         offset="1" /></linearGradient><path
       id="path9"
       d="M45.566,16.09c-8.125-8.123-21.348-8.123-29.472,0c-8.126,8.125-8.126,21.349,0,29.471   c7.458,7.461,19.209,8.068,27.372,1.833l4.377,4.38l0.898,5.023c0.092,0.513,0.465,1.229,0.832,1.597l11.064,11.062   c0.73,0.73,1.928,0.73,2.659,0l6.153-6.156c0.731-0.727,0.731-1.926,0-2.657L58.396,49.568c-0.368-0.365-1.083-0.738-1.593-0.832   l-5.032-0.896l-4.373-4.374C53.633,35.301,53.025,23.551,45.566,16.09z M40.987,40.984c-5.6,5.6-14.711,5.6-20.312,0   c-5.602-5.6-5.602-14.713-0.002-20.313c5.602-5.596,14.715-5.596,20.314,0C46.588,26.271,46.588,35.385,40.987,40.984z"
       style="fill:url(#SVGID_1_);" /><rect
       id="rect11"
       height="80"
       width="80"
       style="fill:none;" /></g></svg>